<svg xmlns="http://www.w3.org/2000/svg" viewBox="0 0 64 64">
  <rect width="64" height="64" rx="13" fill="#b85c1f"/>
  <g transform="translate(32 32) scale(0.82) translate(-32 -32)">
    <g>
      <g transform="translate(32 33) rotate(-30)"><path d="M2 0 C 9 -9, 21 -9, 28 0 C 21 9, 9 9, 2 0 Z" fill="#b85c1f"/><path d="M5.5 0 C 11 -5.6, 19.5 -5.6, 25 0 C 19.5 5.6, 11 5.6, 5.5 0 Z" fill="#f2d4ad"/></g>
      <g transform="translate(32 33) rotate(10)"><path d="M2 0 C 9 -9, 21 -9, 28 0 C 21 9, 9 9, 2 0 Z" fill="#b85c1f"/><path d="M5.5 0 C 11 -5.6, 19.5 -5.6, 25 0 C 19.5 5.6, 11 5.6, 5.5 0 Z" fill="#f2d4ad"/></g>
      <g transform="translate(32 33) rotate(50)"><path d="M2 0 C 9 -9, 21 -9, 28 0 C 21 9, 9 9, 2 0 Z" fill="#b85c1f"/><path d="M5.5 0 C 11 -5.6, 19.5 -5.6, 25 0 C 19.5 5.6, 11 5.6, 5.5 0 Z" fill="#f2d4ad"/></g>
      <g transform="translate(32 33) rotate(90)"><path d="M2 0 C 9 -9, 21 -9, 28 0 C 21 9, 9 9, 2 0 Z" fill="#b85c1f"/><path d="M5.5 0 C 11 -5.6, 19.5 -5.6, 25 0 C 19.5 5.6, 11 5.6, 5.5 0 Z" fill="#f2d4ad"/></g>
      <g transform="translate(32 33) rotate(130)"><path d="M2 0 C 9 -9, 21 -9, 28 0 C 21 9, 9 9, 2 0 Z" fill="#b85c1f"/><path d="M5.5 0 C 11 -5.6, 19.5 -5.6, 25 0 C 19.5 5.6, 11 5.6, 5.5 0 Z" fill="#f2d4ad"/></g>
      <g transform="translate(32 33) rotate(170)"><path d="M2 0 C 9 -9, 21 -9, 28 0 C 21 9, 9 9, 2 0 Z" fill="#b85c1f"/><path d="M5.5 0 C 11 -5.6, 19.5 -5.6, 25 0 C 19.5 5.6, 11 5.6, 5.5 0 Z" fill="#f2d4ad"/></g>
      <g transform="translate(32 33) rotate(210)"><path d="M2 0 C 9 -9, 21 -9, 28 0 C 21 9, 9 9, 2 0 Z" fill="#b85c1f"/><path d="M5.5 0 C 11 -5.6, 19.5 -5.6, 25 0 C 19.5 5.6, 11 5.6, 5.5 0 Z" fill="#f2d4ad"/></g>
    </g>
    <circle cx="32" cy="22" r="14.5" fill="#e8833a"/>
    <g stroke="#f2d4ad" stroke-width="1.8" stroke-linecap="round"><path d="M32 22 L32 8.5"/><path d="M32 22 L43.7 15.25"/><path d="M32 22 L43.7 28.75"/><path d="M32 22 L32 35.5"/><path d="M32 22 L20.3 28.75"/><path d="M32 22 L20.3 15.25"/></g>
    <circle cx="32" cy="22" r="14.5" fill="none" stroke="#e8833a" stroke-width="2.4"/>
    <circle cx="32" cy="22" r="2.2" fill="#f2d4ad"/>
  </g>
</svg>
